# xmcd
#
# Track frame offsets:
#	150
#	15204
#	25362
#	35559
#	48956
#	66738
#	84852
#	99434
#	114500
#	126279
#	136410
#	148570
#	166478
#	179566
#	195196
#	216018
#	249383
#
# Disc length: 3789 seconds
#
# Revision: 1
# Processed by: cddbd v1.5.2PL0 Copyright (c) Steve Scherf et al.
# Submitted via: audiograbber 1.83.01
#
DISCID=e70ecb11
DTITLE=DANIELE CORDANI - Voglia di Fisarmonica
DYEAR=1900
DGENRE=LISCIO
TTITLE0=RUBACUORI (Valzer Viennese)
TTITLE1=GONDOLA (Mazurca)
TTITLE2=SALTERINA (Mazurca)
TTITLE3=CROMATICA (Polca)
TTITLE4=CALOR (Tango)
TTITLE5=CUBANA - SOUND OF SILENCES (Cumbia)
TTITLE6=BOMBER (FoxTrot)
TTITLE7=SPACCACUORE (Valzer Viennese)
TTITLE8=OTTAVIA (Mazurca)
TTITLE9=PERICOLOSA (Mazurca)
TTITLE10=SIVIGLIA (Paso Doble)
TTITLE11=LE VIE DEL CUORE (Tango)
TTITLE12=POPCORN (Fox Trot)
TTITLE13=STELLA DEL SUD (Moderato)
TTITLE14=CUMBIA CHIQUITITA (Cumbia)
TTITLE15=LUI (Cumbia)
TTITLE16=Dati Traccia
EXTD=
EXTT0=
EXTT1=
EXTT2=
EXTT3=
EXTT4=
EXTT5=
EXTT6=
EXTT7=
EXTT8=
EXTT9=
EXTT10=
EXTT11=
EXTT12=
EXTT13=
EXTT14=
EXTT15=
EXTT16=
PLAYORDER=
